<svg xmlns="http://www.w3.org/2000/svg" width="32" height="28" viewBox="0 0 32 28"><path fill="#23252b" fill-rule="evenodd" d="M58.0625,735.5 C57.312496,737.458343 56.229174,739.291658 54.8125,741 C59.229189,741 62.729154,740.208341 65.3125,738.625 C66.56251,738.875001 67.79166,739 69,739 C73.41669,739 77.18748,737.729179 80.3125,735.1875 C83.43752,732.645821 85,729.58335 85,726 C85,722.41665 83.43752,719.35418 80.3125,716.8125 C77.18748,714.27082 73.41669,713 69,713 C64.58331,713 60.812516,714.27082 57.6875,716.8125 C54.562484,719.35418 53,722.41665 53,726 C53,729.75002 54.687483,732.916654 58.0625,735.5 Z" transform="matrix(-1 0 0 1 85 -713)"/></svg>